<svg xmlns="http://www.w3.org/2000/svg" width="454" height="454" viewBox="0 0 454 454">
  <defs>
    <radialGradient id="bg" cx="50%" cy="38%" r="70%">
      <stop offset="0" stop-color="#181018"/>
      <stop offset="1" stop-color="#09070A"/>
    </radialGradient>
  </defs>
  <circle cx="227" cy="227" r="224" fill="url(#bg)" stroke="#2B222B" stroke-width="3"/>
  <path d="M57 154 A205 205 0 0 1 100 90" fill="none" stroke="#F3A7B8" stroke-width="6" stroke-linecap="round"/>
  <path d="M354 90 A205 205 0 0 1 397 154" fill="none" stroke="#E0B277" stroke-width="6" stroke-linecap="round"/>
  <path d="M58 300 A205 205 0 0 0 101 364" fill="none" stroke="#C6A1DB" stroke-width="6" stroke-linecap="round"/>
  <path d="M353 364 A205 205 0 0 0 396 300" fill="none" stroke="#D7899C" stroke-width="6" stroke-linecap="round"/>
  <circle cx="227" cy="70" r="15" fill="#E0B277"/>
  <circle cx="234" cy="66" r="15" fill="#09070A"/>
  <g stroke="#E0B277" stroke-width="2">
    <path d="M184 71h12M190 65v12"/>
    <path d="M270 62h10M275 57v10"/>
  </g>
  <g fill="none" stroke="#765F70" stroke-width="2" stroke-linecap="round">
    <path d="M74 120c-8 24-14 48-18 74"/>
    <path d="M380 120c8 24 14 48 18 74"/>
  </g>
  <g>
    <g fill="#F3A7B8">
      <circle cx="72" cy="129" r="6"/><circle cx="84" cy="129" r="6"/><circle cx="78" cy="123" r="6"/><circle cx="78" cy="135" r="6"/>
      <circle cx="382" cy="129" r="6"/><circle cx="370" cy="129" r="6"/><circle cx="376" cy="123" r="6"/><circle cx="376" cy="135" r="6"/>
    </g>
    <g fill="#E0B277"><circle cx="78" cy="129" r="3"/><circle cx="376" cy="129" r="3"/></g>
    <g fill="#D7899C">
      <circle cx="65" cy="151" r="5"/><circle cx="59" cy="169" r="4"/><circle cx="389" cy="151" r="5"/><circle cx="395" cy="169" r="4"/>
    </g>
    <g fill="#C6A1DB">
      <circle cx="61" cy="187" r="5"/><circle cx="393" cy="187" r="5"/>
    </g>
  </g>
  <text x="227" y="117" text-anchor="middle" fill="#F8E9E1" font-family="system-ui, sans-serif" font-size="21">27.09.</text>
  <text x="227" y="215" text-anchor="middle" fill="#F8E9E1" font-family="system-ui, sans-serif" font-size="72" font-weight="300">20:53</text>
  <g font-family="system-ui, sans-serif" text-anchor="middle">
    <g transform="translate(68 326)">
      <circle r="36" fill="none" stroke="#2B222B" stroke-width="6"/>
      <path d="M-26 25 A36 36 0 0 1 21 -29" fill="none" stroke="#F3A7B8" stroke-width="6" stroke-linecap="round"/>
      <text y="-2" fill="#F8E9E1" font-size="17">8.4k</text><text y="21" fill="#F8E9E1" font-size="10">STEPS</text>
    </g>
    <g transform="translate(175 326)">
      <circle r="36" fill="none" stroke="#2B222B" stroke-width="6"/>
      <path d="M-26 25 A36 36 0 0 1 8 -35" fill="none" stroke="#D7899C" stroke-width="6" stroke-linecap="round"/>
      <text y="-2" fill="#F8E9E1" font-size="17">78</text><text y="21" fill="#F8E9E1" font-size="10">BPM</text>
    </g>
    <g transform="translate(279 326)">
      <circle r="36" fill="none" stroke="#2B222B" stroke-width="6"/>
      <path d="M-26 25 A36 36 0 1 1 28 22" fill="none" stroke="#E0B277" stroke-width="6" stroke-linecap="round"/>
      <text y="-2" fill="#F8E9E1" font-size="17">82%</text><text y="21" fill="#F8E9E1" font-size="10">BAT</text>
    </g>
    <g transform="translate(386 326)">
      <circle r="36" fill="none" stroke="#2B222B" stroke-width="6"/>
      <path d="M-26 25 A36 36 0 0 1 30 -20" fill="none" stroke="#C6A1DB" stroke-width="6" stroke-linecap="round"/>
      <text y="-2" fill="#F8E9E1" font-size="17">71</text><text y="21" fill="#F8E9E1" font-size="10">BODY</text>
    </g>
  </g>
  <g stroke="#E0B277" stroke-width="2" fill="none" stroke-linecap="round">
    <path d="M227 414v-22"/><path d="M227 402l-17-14"/><path d="M227 402l17-14"/>
  </g>
  <circle cx="210" cy="388" r="5" fill="#F3A7B8"/><circle cx="244" cy="388" r="5" fill="#C6A1DB"/>
</svg>